<?xml version="1.0" standalone="no"?>
<!DOCTYPE svg PUBLIC "-//W3C//DTD SVG 20010904//EN"
 "http://www.w3.org/TR/2001/REC-SVG-20010904/DTD/svg10.dtd">
<svg version="1.0" xmlns="http://www.w3.org/2000/svg"
 width="1920.000000pt" height="1920.000000pt" viewBox="0 0 1920.000000 1920.000000"
 preserveAspectRatio="xMidYMid meet">
<metadata>
Created by potrace 1.11, written by Peter Selinger 2001-2013
</metadata>
<g transform="translate(0.000000,1920.000000) scale(0.100000,-0.100000)"
fill="#000000" stroke="none">
<path d="M9588 17765 c-2 -3 -56 -7 -119 -10 -63 -3 -161 -7 -219 -10 -58 -3
-150 -8 -205 -10 -139 -6 -266 -14 -290 -19 -11 -2 -45 -7 -75 -11 -30 -4 -62
-9 -70 -10 -47 -8 -99 -16 -130 -20 -19 -2 -53 -7 -75 -10 -22 -4 -53 -9 -70
-11 -16 -3 -55 -9 -85 -14 -30 -5 -75 -11 -100 -14 -102 -13 -170 -28 -480
-106 -179 -45 -335 -84 -348 -86 -32 -6 -183 -53 -207 -64 -18 -9 -265 -97
-290 -104 -5 -2 -17 -6 -25 -9 -8 -4 -89 -33 -181 -66 -91 -33 -228 -90 -305
-127 -144 -69 -222 -105 -409 -193 -110 -52 -263 -136 -384 -211 -34 -22 -67
-40 -71 -40 -5 0 -10 -3 -12 -7 -4 -9 -50 -37 -90 -55 -16 -7 -28 -16 -28 -20
0 -4 -4 -8 -9 -8 -5 0 -38 -18 -72 -40 -35 -21 -98 -59 -139 -84 -41 -25 -87
-55 -101 -68 -15 -13 -61 -48 -103 -78 -312 -225 -483 -359 -611 -475 -6 -5
-58 -53 -115 -105 -58 -52 -112 -101 -121 -110 -9 -8 -51 -46 -95 -85 -86 -77
-145 -135 -214 -211 -25 -28 -83 -92 -130 -144 -47 -51 -92 -101 -100 -110
-55 -62 -161 -179 -192 -212 -20 -21 -38 -42 -40 -46 -1 -4 -8 -14 -14 -22
-18 -22 -229 -307 -298 -401 -33 -44 -64 -86 -70 -92 -31 -33 -184 -276 -281
-444 -6 -10 -61 -102 -123 -206 -61 -103 -112 -190 -112 -193 0 -3 -20 -47
-44 -97 -49 -103 -128 -269 -188 -397 -22 -47 -50 -108 -63 -135 -21 -44 -82
-204 -105 -275 -5 -14 -25 -70 -45 -125 -20 -55 -41 -111 -45 -125 -5 -14 -29
-83 -55 -155 -36 -101 -113 -381 -140 -505 -2 -8 -26 -105 -53 -215 -28 -110
-53 -220 -56 -245 -3 -25 -8 -54 -10 -65 -3 -18 -8 -51 -22 -155 -3 -19 -11
-75 -19 -125 -8 -49 -17 -110 -20 -135 -3 -25 -8 -56 -10 -70 -2 -14 -7 -45
-10 -70 -3 -25 -8 -52 -11 -61 -2 -9 -7 -57 -9 -105 -2 -49 -7 -141 -10 -204
-3 -63 -8 -153 -10 -200 -9 -169 -17 -355 -17 -365 3 -38 12 -200 17 -305 6
-132 13 -275 20 -400 2 -41 6 -92 10 -112 3 -21 7 -55 10 -75 3 -21 11 -69 17
-108 6 -38 12 -83 14 -100 2 -16 7 -57 13 -90 5 -33 13 -80 16 -105 3 -25 10
-70 15 -100 5 -30 12 -75 16 -100 3 -25 7 -54 9 -65 5 -37 194 -782 206 -811
6 -16 12 -36 14 -44 4 -16 111 -312 125 -345 4 -11 11 -29 13 -40 3 -11 19
-58 37 -105 17 -47 38 -105 47 -130 17 -48 46 -114 122 -273 27 -56 65 -138
86 -182 120 -256 182 -377 269 -518 53 -87 96 -163 96 -168 0 -5 5 -9 10 -9 6
0 10 -4 10 -9 0 -6 38 -72 85 -148 47 -76 89 -147 94 -158 5 -12 16 -27 25
-34 9 -7 16 -19 16 -26 0 -8 4 -15 8 -17 11 -4 282 -368 282 -378 0 -5 4 -10
8 -12 4 -1 41 -48 83 -103 41 -55 98 -125 126 -155 56 -61 72 -79 153 -169 30
-34 75 -83 100 -110 25 -27 74 -81 110 -122 82 -92 136 -146 234 -234 43 -38
91 -81 106 -95 15 -14 67 -61 116 -105 48 -44 92 -85 98 -90 36 -34 185 -163
206 -178 47 -33 175 -127 200 -146 14 -11 42 -32 62 -48 21 -15 69 -50 107
-78 39 -27 71 -53 71 -57 0 -5 5 -8 11 -8 9 0 86 -55 99 -71 9 -11 142 -89
151 -89 5 0 9 -4 9 -10 0 -5 4 -10 9 -10 5 0 91 -50 191 -110 99 -61 185 -110
191 -110 5 0 9 -4 9 -10 0 -5 5 -10 10 -10 6 0 39 -18 73 -40 57 -36 124 -69
402 -200 50 -24 135 -64 190 -90 201 -95 256 -120 266 -120 6 0 38 -11 72 -24
34 -13 100 -38 147 -54 47 -17 173 -62 280 -100 140 -51 303 -97 580 -167 437
-110 404 -102 479 -111 31 -3 59 -8 63 -10 3 -2 26 -6 50 -9 68 -7 148 -19
223 -32 17 -3 41 -6 55 -8 29 -3 116 -16 145 -21 11 -2 40 -6 65 -9 25 -3 57
-8 71 -11 15 -3 64 -7 110 -9 46 -3 127 -7 179 -10 52 -2 149 -7 215 -10 66
-3 163 -8 215 -11 52 -3 100 -5 105 -6 10 0 182 8 350 17 44 2 141 7 215 11
265 13 264 13 359 29 14 2 49 7 76 11 28 3 59 8 70 11 11 2 34 6 50 7 56 7
257 36 279 41 11 2 41 7 66 10 49 6 86 11 140 22 43 8 27 4 200 48 80 20 152
38 160 40 8 2 44 11 80 20 36 9 72 18 80 20 105 22 327 83 345 96 6 4 33 14
60 22 28 8 113 38 190 67 77 29 145 53 150 54 6 2 17 6 25 9 8 3 56 20 105 37
110 38 172 65 340 145 72 34 162 77 200 95 234 110 382 185 468 239 54 33 100
61 102 61 3 0 145 85 215 130 25 16 174 104 195 115 17 10 121 86 312 229 23
17 52 39 65 48 89 65 175 129 188 140 8 8 34 26 57 42 23 15 57 42 75 60 19
17 76 69 128 116 52 46 113 101 135 121 22 20 56 52 77 70 20 19 67 61 104 94
92 82 156 146 244 245 87 97 90 100 195 215 186 203 229 254 282 325 26 36 52
70 58 77 5 7 16 19 23 27 6 8 12 17 12 20 0 3 30 45 68 94 37 49 75 99 85 113
9 13 53 72 97 132 44 59 89 122 99 140 10 17 57 97 105 176 47 78 86 147 86
152 0 5 5 9 10 9 6 0 10 4 10 9 0 5 23 46 51 91 27 45 61 100 75 123 34 57
174 345 306 627 22 47 51 108 65 135 14 28 27 57 29 65 2 8 24 71 49 140 25
69 54 150 64 180 11 30 38 107 61 170 23 63 53 147 66 185 19 53 137 508 210
810 3 11 12 61 19 110 8 50 17 106 20 125 3 19 8 53 11 75 2 22 6 47 9 55 2 8
7 39 10 69 4 30 9 63 11 75 2 12 6 41 9 66 3 25 8 56 10 70 3 14 7 43 10 65 3
22 8 51 11 65 2 14 6 63 9 110 2 47 7 132 10 190 3 58 7 148 10 200 2 52 7
151 11 220 7 146 7 117 0 260 -4 63 -8 162 -11 220 -3 58 -7 146 -10 195 -3
50 -7 136 -10 193 -2 57 -6 106 -9 110 -2 4 -7 31 -10 60 -3 29 -8 63 -11 75
-2 12 -7 45 -11 72 -3 28 -8 59 -9 70 -2 11 -8 54 -15 95 -11 76 -13 90 -25
168 -4 23 -8 52 -10 65 -1 12 -6 42 -10 67 -4 25 -8 54 -10 65 -1 11 -12 56
-23 100 -12 44 -23 91 -26 105 -3 14 -37 151 -76 305 -61 242 -110 397 -190
610 -20 53 -70 193 -74 210 -2 6 -6 17 -9 25 -4 8 -18 49 -33 90 -30 86 -43
114 -131 300 -36 74 -76 160 -90 190 -117 252 -187 381 -350 653 -103 171
-194 324 -202 339 -7 16 -17 28 -22 28 -5 0 -9 7 -9 15 0 8 -4 15 -8 15 -4 0
-15 12 -24 28 -9 15 -24 36 -32 47 -9 11 -75 99 -146 195 -71 96 -133 180
-138 185 -4 6 -18 26 -32 45 -13 19 -27 37 -30 40 -3 3 -18 23 -34 45 -16 22
-37 47 -45 56 -22 21 -171 185 -212 233 -19 21 -50 55 -69 76 -19 20 -69 75
-110 121 -96 106 -145 156 -249 249 -47 41 -99 89 -116 105 -18 17 -68 62
-111 100 -42 39 -92 84 -110 100 -17 17 -49 46 -70 65 -30 27 -327 251 -509
385 -25 18 -45 33 -113 86 -30 22 -162 106 -295 186 -133 79 -252 151 -264
159 -13 8 -25 14 -28 15 -2 0 -28 16 -57 35 -47 31 -312 166 -468 237 -109 49
-296 138 -320 151 -26 15 -210 86 -222 86 -4 0 -19 5 -35 12 -15 6 -32 12 -38
13 -5 2 -122 44 -260 93 -208 75 -318 108 -652 191 -220 55 -421 103 -445 106
-23 3 -70 10 -103 14 -204 30 -343 51 -365 55 -14 3 -61 10 -105 16 -44 6 -92
13 -108 16 -33 5 -128 11 -302 19 -71 3 -166 8 -210 10 -44 3 -131 7 -193 10
-62 2 -121 6 -131 10 -9 3 -20 3 -23 0z m357 -568 c39 -3 133 -8 210 -12 164
-7 244 -15 320 -29 11 -2 43 -7 70 -10 28 -4 62 -9 76 -11 14 -3 41 -7 60 -9
19 -3 51 -7 72 -10 20 -3 54 -8 75 -11 20 -3 51 -8 67 -10 17 -3 46 -7 65 -10
86 -10 166 -29 490 -110 190 -48 350 -88 355 -90 15 -3 47 -15 83 -31 18 -8
37 -14 42 -14 5 0 19 -4 32 -9 13 -5 26 -9 31 -10 4 0 21 -8 37 -16 16 -8 32
-15 35 -14 3 1 18 -3 33 -9 15 -6 36 -13 47 -18 11 -4 27 -8 36 -10 8 -2 29
-10 45 -19 16 -8 33 -15 38 -15 5 0 66 -21 135 -47 119 -43 194 -76 406 -178
50 -24 131 -62 180 -85 162 -76 239 -116 325 -169 47 -28 92 -56 100 -61 39
-24 146 -85 155 -89 6 -2 12 -7 15 -10 3 -4 65 -42 139 -86 73 -43 138 -83
145 -89 6 -6 72 -56 146 -111 74 -54 137 -101 140 -105 3 -3 19 -14 35 -24 17
-11 37 -25 45 -33 8 -8 55 -43 103 -78 49 -35 125 -97 170 -138 45 -41 104
-94 131 -118 28 -24 62 -55 76 -69 15 -14 64 -59 111 -100 106 -95 213 -202
309 -309 41 -46 89 -99 106 -117 17 -18 59 -65 93 -103 35 -38 72 -81 84 -94
79 -86 123 -142 195 -247 9 -14 19 -27 22 -30 3 -3 19 -23 36 -45 16 -22 33
-44 37 -50 4 -5 26 -35 48 -65 44 -60 61 -83 130 -174 50 -68 329 -529 329
-545 0 -6 4 -11 8 -11 5 0 15 -12 23 -27 7 -16 31 -56 51 -91 21 -34 38 -64
38 -66 0 -2 30 -66 66 -142 36 -77 82 -173 101 -214 20 -41 58 -122 85 -180
44 -93 82 -192 238 -630 21 -58 45 -124 53 -147 9 -23 18 -54 21 -70 3 -15 43
-179 90 -363 47 -184 87 -355 90 -380 3 -25 8 -56 10 -70 3 -14 10 -61 16
-105 15 -104 19 -135 25 -165 2 -14 7 -45 10 -70 3 -25 10 -71 16 -104 6 -32
8 -60 5 -63 -3 -3 -1 -13 3 -22 11 -20 19 -108 26 -266 3 -66 8 -172 12 -235
8 -151 8 -514 0 -665 -4 -66 -9 -167 -12 -225 -8 -157 -19 -275 -25 -275 -1 0
-3 -16 -4 -35 -3 -35 -12 -97 -22 -155 -3 -16 -7 -48 -9 -70 -2 -22 -5 -41 -6
-42 -3 -5 -5 -17 -13 -78 -4 -32 -10 -68 -12 -80 -2 -11 -6 -38 -9 -60 -9 -78
-17 -120 -27 -160 -5 -22 -11 -47 -13 -55 -2 -8 -13 -53 -25 -100 -12 -47 -24
-92 -25 -100 -2 -8 -4 -16 -5 -17 -2 -2 -3 -6 -4 -10 -4 -19 -18 -89 -18 -93
0 -3 -4 -15 -9 -28 -5 -12 -11 -33 -14 -45 -2 -12 -9 -42 -16 -67 -6 -25 -12
-53 -15 -64 -8 -40 -37 -135 -66 -216 -16 -47 -43 -123 -60 -170 -17 -47 -34
-94 -39 -105 -4 -11 -32 -90 -62 -175 -30 -85 -79 -204 -108 -265 -29 -60 -53
-112 -54 -115 0 -3 -17 -39 -37 -80 -89 -185 -158 -331 -158 -335 0 -4 -68
-120 -117 -200 -7 -11 -17 -29 -23 -40 -6 -11 -19 -33 -30 -50 -11 -16 -23
-37 -27 -45 -4 -8 -11 -19 -16 -25 -4 -5 -45 -72 -90 -148 -45 -76 -86 -146
-92 -155 -20 -33 -99 -137 -107 -140 -4 -2 -8 -10 -8 -18 0 -8 -4 -14 -8 -14
-4 0 -15 -12 -24 -27 -9 -16 -25 -38 -35 -50 -10 -12 -26 -32 -35 -45 -9 -13
-46 -63 -83 -113 -66 -90 -75 -102 -118 -161 -12 -17 -56 -68 -97 -114 -41
-45 -84 -92 -95 -105 -11 -12 -58 -64 -105 -115 -47 -51 -103 -114 -125 -139
-22 -25 -69 -75 -105 -111 -55 -55 -105 -101 -276 -255 -12 -11 -60 -55 -106
-97 -47 -43 -100 -92 -119 -109 -19 -17 -140 -110 -269 -207 -129 -96 -270
-201 -312 -233 -43 -32 -90 -65 -105 -74 -16 -9 -46 -27 -68 -40 -22 -14 -56
-34 -75 -45 -19 -11 -48 -29 -65 -39 -300 -181 -419 -248 -565 -318 -96 -46
-183 -87 -192 -93 -10 -5 -22 -10 -28 -10 -6 0 -22 -8 -36 -17 -55 -36 -267
-127 -439 -189 -99 -36 -184 -66 -190 -68 -5 -1 -14 -4 -20 -8 -5 -3 -26 -10
-45 -16 -29 -8 -96 -32 -220 -78 -8 -3 -17 -6 -20 -6 -3 0 -29 -9 -57 -19 -29
-10 -53 -16 -53 -14 0 2 -15 -1 -32 -6 -18 -6 -40 -12 -48 -14 -8 -2 -71 -17
-140 -35 -69 -17 -135 -34 -148 -36 -12 -2 -75 -18 -140 -35 -139 -36 -134
-35 -197 -43 -27 -4 -75 -11 -105 -16 -30 -5 -75 -12 -100 -15 -25 -3 -57 -8
-71 -10 -14 -3 -41 -7 -60 -9 -19 -3 -50 -7 -69 -10 -233 -37 -280 -42 -465
-51 -66 -3 -172 -8 -235 -12 -135 -8 -518 -8 -640 0 -47 3 -146 9 -220 12
-189 9 -211 11 -335 29 -60 10 -126 19 -145 22 -19 2 -50 7 -68 10 -17 3 -49
7 -70 10 -20 2 -48 7 -62 10 -26 5 -56 10 -130 19 -97 13 -118 17 -200 36 -47
12 -96 23 -109 25 -14 3 -28 7 -33 10 -4 3 -18 7 -30 9 -13 3 -61 14 -108 26
-47 11 -96 23 -109 25 -13 3 -32 9 -43 15 -10 5 -18 8 -18 5 0 -2 -48 9 -107
24 -99 26 -177 51 -308 100 -27 10 -90 33 -140 50 -49 17 -99 35 -110 40 -11
4 -73 27 -137 49 -65 23 -177 70 -250 105 -73 35 -158 75 -188 89 -262 120
-371 175 -455 229 -33 21 -72 44 -87 51 -15 6 -28 15 -28 19 0 5 -4 8 -10 8
-5 0 -91 50 -190 110 -100 61 -186 110 -191 110 -5 0 -9 5 -9 10 0 6 -5 10
-10 10 -9 0 -131 88 -169 122 -8 7 -20 15 -25 18 -20 9 -331 244 -334 252 -2
4 -8 8 -14 8 -10 0 -49 32 -139 112 -55 48 -183 164 -218 197 -20 18 -67 61
-105 95 -82 72 -238 227 -281 278 -29 34 -164 184 -215 238 -105 112 -192 215
-230 270 -18 26 -86 119 -103 140 -7 8 -43 58 -82 110 -38 52 -73 100 -78 105
-4 6 -31 42 -60 80 -28 39 -55 72 -60 73 -4 2 -7 8 -7 13 0 6 -80 144 -178
307 -198 329 -201 335 -268 477 -129 275 -156 332 -169 358 -8 16 -15 35 -15
42 0 7 -4 15 -8 17 -11 4 -71 147 -107 253 -15 44 -31 89 -36 100 -14 33 -171
477 -174 494 -2 9 -13 54 -25 101 -114 459 -148 600 -153 640 -4 25 -9 59 -12
75 -9 54 -15 89 -20 135 -3 25 -7 56 -10 70 -3 13 -7 42 -10 65 -6 40 -9 57
-19 130 -3 22 -8 60 -11 84 -3 23 -7 47 -10 51 -5 8 -10 80 -20 280 -3 58 -8
152 -12 210 -8 140 -9 507 0 650 4 63 9 169 12 235 8 163 12 204 29 320 8 55
17 118 21 140 3 23 7 50 9 60 2 11 7 43 10 70 4 28 13 91 21 140 7 50 16 110
19 135 7 49 8 55 31 150 9 36 18 73 20 83 2 10 7 27 10 37 3 10 8 28 10 39 8
35 12 52 44 176 17 66 33 129 35 140 12 61 50 187 94 310 28 77 73 205 102
285 29 80 53 150 54 155 1 6 7 19 13 30 5 11 13 32 17 47 3 14 32 82 65 150
32 67 74 157 94 198 19 41 62 133 96 203 34 70 61 130 61 132 0 7 167 287 180
302 5 7 10 14 10 17 0 2 43 75 95 162 52 86 95 159 95 161 0 3 65 92 93 128 4
5 44 60 88 120 44 61 88 119 97 130 9 12 33 43 51 70 19 28 37 52 41 55 3 3
31 39 62 80 31 41 71 91 88 110 40 43 191 209 205 224 179 202 261 286 399
411 43 39 92 84 110 100 31 29 141 128 216 195 64 58 103 89 275 215 94 69
181 134 195 145 106 85 307 220 326 220 3 0 14 9 26 20 12 11 28 20 35 20 7 0
13 4 13 10 0 5 3 9 8 8 4 -1 33 14 65 35 31 20 59 37 62 37 3 0 28 15 57 33
29 19 60 37 68 40 8 4 47 27 85 51 70 44 192 107 233 120 12 4 22 12 22 17 0
5 6 9 13 9 7 0 118 50 247 111 217 103 360 162 500 209 30 10 93 32 140 50 47
17 90 33 95 34 6 1 15 4 20 8 6 3 26 10 45 16 19 6 74 24 121 41 48 16 97 32
110 35 21 4 74 16 129 30 100 26 470 119 485 122 68 15 111 22 117 18 5 -3 8
0 8 6 0 6 4 8 10 5 5 -3 36 -1 67 4 32 6 76 13 98 16 23 3 50 7 60 9 11 2 43
7 70 10 28 4 77 11 110 16 33 5 78 12 100 15 23 3 50 7 60 9 43 8 146 16 270
21 200 8 297 14 301 18 5 5 515 0 599 -6z"/>
<path d="M6648 15386 c-1 -2 -79 -6 -173 -10 -93 -3 -181 -8 -194 -11 -14 -2
-54 -7 -90 -10 -36 -3 -73 -7 -81 -10 -8 -2 -37 -6 -65 -10 -27 -3 -102 -17
-165 -31 -147 -33 -145 -32 -145 -34 0 -1 -7 -3 -15 -5 -229 -51 -605 -210
-857 -361 -125 -75 -300 -195 -338 -231 -8 -7 -18 -13 -23 -13 -6 0 -12 -3
-14 -7 -1 -5 -33 -32 -70 -62 -38 -30 -68 -58 -68 -63 0 -4 -5 -8 -10 -8 -6 0
-24 -13 -40 -30 -16 -16 -32 -30 -34 -30 -13 0 -272 -268 -366 -380 -84 -99
-96 -115 -173 -220 -43 -58 -81 -110 -86 -116 -5 -6 -26 -37 -47 -70 -21 -32
-41 -61 -44 -64 -3 -3 -12 -16 -19 -30 -8 -14 -46 -77 -84 -140 -127 -209
-294 -552 -392 -805 -25 -66 -50 -129 -55 -140 -34 -75 -184 -561 -217 -698
-2 -12 -8 -38 -13 -57 -12 -48 -40 -171 -45 -195 -8 -35 -15 -69 -21 -95 -16
-79 -65 -349 -69 -384 -2 -22 -7 -52 -9 -66 -13 -68 -29 -198 -41 -325 -3 -33
-8 -76 -10 -95 -5 -31 -8 -74 -20 -230 -20 -274 -27 -1034 -11 -1285 13 -211
15 -239 20 -300 3 -33 8 -89 11 -125 8 -105 19 -201 45 -393 6 -45 13 -93 15
-107 3 -14 7 -43 10 -65 3 -22 10 -62 15 -90 5 -27 12 -63 14 -80 3 -16 8 -43
12 -60 3 -16 15 -75 26 -130 11 -55 33 -156 49 -225 17 -69 32 -133 34 -143 2
-10 7 -27 10 -37 3 -10 8 -27 10 -37 10 -42 25 -94 55 -193 18 -58 34 -112 35
-120 2 -8 4 -15 5 -15 1 0 3 -7 5 -15 11 -44 99 -293 137 -385 11 -27 24 -59
28 -70 32 -80 90 -216 130 -302 27 -55 51 -111 55 -122 3 -12 11 -21 17 -21 6
0 9 -3 6 -6 -3 -3 18 -50 48 -104 30 -55 54 -102 54 -105 0 -3 5 -11 10 -18 6
-7 43 -66 82 -132 39 -66 74 -122 79 -123 5 -2 9 -8 9 -13 0 -12 92 -146 179
-259 163 -213 295 -358 507 -555 112 -104 350 -281 499 -372 189 -115 379
-209 550 -273 33 -12 69 -26 80 -31 33 -14 261 -80 290 -84 11 -1 20 -3 20 -5
0 -1 9 -3 20 -5 11 -3 43 -9 70 -14 85 -17 168 -31 220 -37 28 -3 61 -8 75
-10 132 -23 712 -24 835 0 11 2 45 7 75 10 30 4 66 8 80 11 14 2 41 7 60 9 19
3 46 8 60 11 14 3 38 8 53 10 113 21 398 101 462 129 17 8 41 17 55 21 36 11
124 48 231 98 52 24 99 45 104 47 6 2 27 14 47 26 21 13 40 24 42 24 20 0 368
233 446 298 144 120 202 173 306 276 173 173 272 286 404 461 34 44 67 87 74
96 29 35 49 78 42 90 -4 8 -28 44 -54 80 -26 36 -75 106 -109 155 -84 120 -85
122 -122 137 -51 22 -88 10 -145 -47 -28 -28 -58 -60 -66 -72 -81 -114 -366
-410 -527 -547 -207 -175 -453 -327 -698 -430 -124 -52 -353 -123 -465 -143
-26 -5 -30 -6 -125 -23 -33 -5 -87 -13 -120 -17 -33 -3 -69 -8 -79 -10 -122
-23 -758 -22 -796 1 -3 2 -27 6 -55 9 -123 13 -361 73 -515 129 -303 110 -574
269 -858 502 -28 23 -91 81 -152 139 -399 383 -710 870 -958 1501 -36 91 -129
357 -138 394 -2 9 -15 54 -29 101 -27 88 -82 296 -89 334 -2 11 -13 59 -24
106 -11 47 -22 101 -26 120 -3 19 -8 45 -11 58 -16 85 -50 295 -60 374 -2 18
-6 49 -9 68 -7 47 -14 102 -22 180 -3 36 -8 79 -9 95 -2 17 -7 66 -10 110 -3
44 -8 100 -10 125 -25 276 -25 1084 0 1370 2 19 6 76 10 125 4 50 9 99 11 110
2 11 7 53 10 93 3 40 7 81 9 90 1 9 6 42 10 72 8 70 14 108 20 140 3 14 7 43
10 65 2 22 7 49 9 60 2 11 7 42 10 69 4 27 9 52 11 55 1 3 6 24 9 46 7 44 10
57 66 300 39 165 55 223 107 390 14 44 26 87 28 95 8 32 96 274 133 367 157
387 337 716 556 1013 39 52 75 100 81 106 5 6 19 23 30 38 77 105 351 379 490
491 114 91 353 255 372 255 7 0 13 4 13 9 0 9 333 177 370 185 3 1 37 14 76
29 39 15 81 29 92 32 12 2 27 7 32 10 26 16 333 89 418 100 20 3 55 7 77 10
72 11 118 14 255 20 74 4 137 8 138 10 2 2 15 0 28 -5 16 -6 24 -6 24 1 0 6 3
8 8 5 4 -2 61 -7 127 -10 149 -7 166 -9 392 -41 11 -2 29 -6 40 -9 10 -3 32
-8 48 -11 196 -34 504 -145 725 -262 94 -49 297 -175 310 -192 3 -4 41 -36 85
-71 118 -96 216 -185 417 -382 120 -118 164 -148 213 -148 38 0 92 28 114 59
43 62 201 384 196 399 -3 10 -21 35 -41 57 -20 22 -66 74 -102 115 -84 93
-317 326 -403 401 -157 138 -404 315 -535 384 -27 14 -80 43 -119 63 -216 114
-547 229 -800 278 -22 4 -44 8 -50 9 -5 2 -44 8 -85 13 -67 10 -116 16 -215
28 -16 2 -97 6 -180 9 -82 3 -155 8 -162 10 -6 2 -13 2 -15 1z"/>
<path d="M5756 13490 c-1 -3 -2 -1744 -1 -3870 l1 -3865 247 -3 247 -2 -1
3397 c0 1869 -4 3419 -8 3446 -9 53 0 62 19 17 7 -16 16 -30 21 -30 5 0 9 -4
9 -9 0 -5 37 -72 83 -148 45 -76 84 -142 86 -148 2 -5 31 -55 64 -110 33 -55
71 -120 85 -145 13 -25 31 -53 40 -62 8 -10 11 -18 7 -18 -4 0 -1 -8 7 -17 14
-16 78 -124 118 -196 8 -16 69 -119 134 -230 66 -111 127 -215 135 -232 9 -16
22 -35 29 -43 6 -7 12 -20 12 -28 0 -8 5 -14 10 -14 6 0 10 -4 10 -10 0 -5 28
-56 61 -112 34 -57 83 -140 110 -185 27 -45 49 -87 49 -93 0 -5 4 -10 9 -10 5
0 11 -8 14 -17 4 -10 18 -36 31 -58 14 -22 31 -49 36 -60 6 -11 16 -29 23 -40
72 -119 127 -216 127 -224 0 -5 3 -11 8 -13 4 -1 15 -16 24 -33 20 -33 194
-332 208 -355 5 -8 37 -62 70 -120 33 -58 64 -112 70 -120 11 -18 90 -153 134
-229 17 -29 40 -68 51 -87 27 -45 113 -191 135 -229 9 -16 45 -77 79 -133 33
-57 61 -108 61 -113 0 -5 4 -9 8 -9 5 0 14 -16 22 -35 8 -19 17 -35 21 -35 4
0 9 -8 12 -17 7 -20 40 -77 98 -170 21 -34 39 -64 39 -67 0 -2 18 -34 41 -71
22 -37 49 -82 58 -99 23 -39 81 -139 102 -174 9 -15 25 -43 36 -62 11 -19 48
-82 82 -138 33 -57 61 -108 61 -113 0 -5 5 -9 10 -9 6 0 10 -5 10 -10 0 -6 29
-59 64 -118 58 -99 179 -305 222 -379 11 -17 42 -71 69 -120 65 -114 135 -187
195 -203 25 -7 83 -12 130 -11 94 2 152 22 196 66 26 26 169 265 260 435 11
19 21 37 24 40 5 5 12 18 58 99 14 25 36 64 49 86 13 22 29 52 36 68 6 15 15
27 19 27 4 0 8 4 8 10 0 5 13 31 29 58 28 47 49 84 121 212 105 186 165 288
182 313 11 15 16 27 13 27 -3 0 2 12 13 28 10 15 30 47 44 72 28 50 135 236
167 290 11 19 27 49 36 65 8 17 24 46 36 65 11 19 31 53 42 75 12 22 24 42 27
45 3 3 17 26 30 53 14 26 29 47 33 47 5 0 6 4 3 8 -3 5 2 20 12 33 9 13 65
110 124 214 60 105 113 197 118 205 6 8 15 27 21 43 6 15 14 27 18 27 4 0 13
16 21 35 8 19 17 35 21 35 4 0 9 8 12 18 4 9 18 37 33 62 14 25 36 63 48 85
11 22 23 42 26 45 3 3 11 16 18 30 6 14 16 32 22 40 31 48 110 190 110 199 0
6 5 11 10 11 6 0 10 4 10 9 0 5 41 80 90 166 50 86 90 161 90 166 0 5 4 9 8 9
5 0 14 16 22 35 8 19 16 35 19 35 4 0 12 15 20 33 8 17 26 50 40 72 13 22 78
135 144 250 66 116 130 228 144 250 13 22 29 52 36 68 6 15 15 27 19 27 4 0 8
4 8 9 0 10 6 21 168 303 56 97 102 181 102 187 0 6 5 11 10 11 6 0 10 6 10 14
0 8 6 21 13 28 7 7 20 28 28 46 7 17 16 32 20 32 3 0 11 16 19 35 8 19 17 35
22 35 4 0 8 4 8 8 0 7 82 156 111 202 5 8 39 67 75 130 l65 115 -7 -130 c-4
-71 -7 -1622 -7 -3445 l0 -3315 249 0 249 0 1 3867 c1 3522 -1 3868 -15 3872
-9 2 -117 2 -241 1 -251 -3 -278 -8 -322 -67 -13 -18 -73 -118 -133 -223 -60
-104 -113 -191 -117 -193 -4 -2 -8 -12 -8 -22 0 -10 -5 -22 -11 -26 -6 -3 -17
-21 -25 -38 -8 -17 -26 -49 -40 -71 -13 -22 -30 -51 -37 -65 -6 -14 -14 -27
-17 -30 -5 -5 -10 -14 -52 -89 -22 -40 -81 -142 -122 -211 -15 -25 -29 -53
-33 -62 -3 -10 -10 -18 -15 -18 -5 0 -7 -4 -3 -9 3 -5 -1 -15 -8 -23 -7 -7
-31 -44 -52 -83 -22 -38 -45 -79 -52 -90 -7 -11 -15 -26 -19 -33 -4 -7 -38
-68 -77 -135 -38 -67 -78 -138 -89 -157 -24 -42 -259 -451 -408 -710 -59 -102
-122 -212 -141 -245 -19 -33 -38 -68 -44 -77 -5 -9 -19 -34 -31 -55 -12 -21
-80 -140 -153 -266 -72 -125 -131 -232 -131 -237 0 -6 -4 -10 -10 -10 -5 0
-10 -4 -10 -10 0 -5 -21 -44 -46 -87 -25 -43 -59 -100 -74 -128 -16 -27 -58
-101 -94 -164 -36 -62 -66 -115 -66 -117 0 -3 -12 -23 -26 -45 -14 -23 -37
-62 -51 -87 -15 -26 -33 -59 -42 -74 -9 -15 -83 -145 -166 -289 -82 -144 -165
-287 -183 -318 -18 -31 -37 -65 -42 -76 -6 -11 -22 -38 -35 -60 -14 -22 -28
-47 -32 -55 -6 -13 -75 -134 -102 -180 -47 -78 -198 -342 -210 -367 -8 -18
-19 -33 -23 -33 -4 0 -8 -4 -8 -9 0 -5 -25 -52 -55 -106 -30 -53 -55 -101 -55
-106 0 -5 -5 -9 -10 -9 -6 0 -9 -3 -8 -7 2 -9 -14 -48 -47 -118 -13 -28 -27
-63 -30 -78 -11 -40 -20 -40 -37 1 -52 129 -85 203 -111 247 -15 28 -31 58
-34 68 -3 9 -9 17 -14 17 -5 0 -9 4 -9 9 0 6 -130 233 -190 331 -31 50 -87
147 -91 155 -5 13 -171 292 -220 372 -22 34 -39 65 -39 68 0 2 -15 28 -33 57
-19 29 -45 73 -59 98 -14 25 -34 59 -44 77 -10 17 -46 77 -79 134 -33 56 -72
123 -88 148 -15 25 -30 53 -34 61 -4 8 -9 17 -12 20 -3 3 -12 16 -20 30 -31
53 -115 197 -138 235 -13 22 -26 48 -30 58 -3 9 -9 17 -14 17 -5 0 -9 4 -9 9
0 5 -20 42 -44 82 -184 312 -236 400 -236 404 0 3 -15 29 -34 58 -18 28 -66
108 -106 177 -184 315 -274 467 -291 492 -11 15 -19 30 -19 33 0 3 -46 83
-103 177 -57 95 -106 180 -110 188 -4 8 -15 27 -25 42 -32 50 -72 121 -72 129
0 5 -4 9 -10 9 -5 0 -10 4 -10 10 0 8 -52 101 -90 160 -17 26 -57 96 -115 200
-11 19 -23 37 -26 40 -3 3 -21 32 -40 65 -19 33 -38 68 -44 77 -5 10 -53 90
-105 179 -52 89 -102 173 -110 188 -9 14 -38 64 -65 109 -28 46 -63 107 -80
136 -45 80 -144 246 -170 286 -12 19 -25 45 -29 58 -4 12 -11 22 -16 22 -4 0
-10 8 -14 18 -9 27 -56 103 -88 145 -31 39 -54 55 -91 64 -29 7 -488 10 -491
3z"/>
<path d="M15079 13037 c0 -7 -2 -1472 -4 -3257 -2 -1785 -6 -3263 -8 -3285 -2
-22 -8 -80 -12 -130 -9 -124 -22 -243 -31 -290 -2 -10 -6 -37 -9 -60 -4 -22
-9 -53 -12 -70 -3 -16 -7 -39 -8 -50 -8 -54 -88 -373 -101 -405 -4 -8 -8 -22
-10 -31 -7 -33 -93 -238 -139 -329 -44 -87 -128 -228 -144 -240 -4 -3 -18 -21
-31 -40 -62 -89 -198 -221 -308 -300 -146 -104 -354 -192 -532 -226 -218 -40
-467 -38 -665 6 -96 21 -121 28 -220 60 -154 50 -174 53 -237 37 -52 -13 -83
-100 -93 -257 -5 -84 -13 -175 -20 -217 -4 -24 6 -35 50 -50 17 -6 39 -14 50
-19 11 -4 29 -9 39 -11 11 -2 25 -8 33 -14 7 -6 13 -8 13 -5 0 4 8 2 18 -3 11
-6 30 -12 43 -15 13 -3 76 -18 139 -34 64 -16 138 -32 165 -36 28 -3 61 -8 75
-11 133 -24 480 -24 640 0 212 32 433 103 606 195 86 46 157 91 162 103 2 4 8
7 13 7 6 0 15 4 22 10 7 5 39 31 72 57 92 71 245 228 320 328 37 50 71 92 76
93 5 2 9 8 9 14 0 6 15 34 34 62 67 102 151 267 214 416 33 80 100 267 107
300 2 8 10 35 18 60 9 25 27 95 41 155 14 61 30 126 36 146 5 19 12 52 14 73
3 21 8 46 10 55 3 9 8 34 11 56 3 23 7 50 9 61 2 12 7 45 11 74 4 29 8 60 10
69 4 23 14 127 30 313 15 171 17 498 18 3473 l1 3170 -262 2 c-197 1 -262 -1
-263 -10z"/>
</g>
</svg>
